<?xml version="1.0" encoding="utf-8"?>
<!-- Svg Vector Icons : http://www.onlinewebfonts.com/icon -->
<!DOCTYPE svg PUBLIC "-//W3C//DTD SVG 1.1//EN" "http://www.w3.org/Graphics/SVG/1.1/DTD/svg11.dtd">
<svg version="1.1" xmlns="http://www.w3.org/2000/svg" xmlns:xlink="http://www.w3.org/1999/xlink" x="0px" y="0px" viewBox="0 0 1000 1000" enable-background="new 0 0 1000 1000" xml:space="preserve">
<metadata> Svg Vector Icons : http://www.onlinewebfonts.com/icon </metadata>
<g><path d="M714.4,314.3v123.5h154.8v-21.1l-58.7-102.3L714.4,314.3L714.4,314.3z M791.8,705.9c-28.2,0-51,22.7-51,50.8c0,28,22.8,50.7,51,50.7c28.2,0,51-22.7,51-50.7C842.8,728.7,820,705.9,791.8,705.9z M237.1,705.9c-28.2,0-51,22.7-51,50.8c0,28,22.9,50.7,51,50.7s51-22.7,51-50.7C288.2,728.7,265.3,705.9,237.1,705.9z M142.9,649.3H38.9c-16,0-28.9,12.9-28.9,28.8v62.5c0,15.9,13,28.8,28.9,28.8h56.8c-0.4-4.5-0.7-9-0.7-13.5C95.1,713.5,113.6,675.6,142.9,649.3z M237.1,645.9c-61.5,0-111.4,49.6-111.4,110.8c0,61.2,49.9,110.8,111.4,110.8s111.4-49.6,111.4-110.8C348.6,695.5,298.7,645.9,237.1,645.9z M237.1,807.5c-28.2,0-51-22.7-51-50.7c0-28,22.9-50.8,51-50.8s51,22.7,51,50.8C288.2,784.7,265.3,807.5,237.1,807.5z M791.8,645.9c-61.5,0-111.4,49.6-111.4,110.8c0,61.2,49.9,110.8,111.4,110.8c61.6,0,111.5-49.6,111.5-110.8C903.3,695.5,853.3,645.9,791.8,645.9z M791.8,807.5c-28.2,0-51-22.7-51-50.7c0-28,22.8-50.8,51-50.8c28.2,0,51,22.7,51,50.8C842.8,784.7,820,807.5,791.8,807.5z M637.8,649.3H336.5c29.3,26.3,47.8,64.3,47.8,106.6c0,4.6-0.3,9.1-0.7,13.5H647c-0.4-4.2-0.6-8.4-0.6-12.7c0-43,19.2-81.4,49.5-107.4h-42.7L637.8,649.3L637.8,649.3z M961.1,649.3h-2.5h-75.9c30.3,26.1,49.5,64.5,49.5,107.4c0,4.3-0.3,8.5-0.7,12.7h29.5c16,0,28.9-12.9,28.9-28.8v-62.5C990,662.2,977,649.3,961.1,649.3z M958.5,467L832.4,254.3H682.1c-16,0-28.9,12.9-28.9,28.8v366.2h42.7c25.1-21.5,57.6-34.7,93.4-34.7c35.7,0,68.3,13.1,93.4,34.7h75.9V467z M869.2,437.8H714.4V314.3h96.1l58.7,102.3L869.2,437.8z M568,618h57.9v-52.4h-0.3C623,594.9,598.2,618,568,618z M67.9,618h499.3h0.8c30.2,0,55-23,57.6-52.4c0.2-1.7,0.3-3.4,0.3-5.1V190c0-31.8-25.9-57.5-57.9-57.5H67.9c-32,0-57.9,25.8-57.9,57.5v370.4C10,592.2,35.9,618,67.9,618z"/></g>
</svg>