<?xml version="1.0" standalone="no"?>
<!DOCTYPE svg PUBLIC "-//W3C//DTD SVG 20010904//EN"
 "http://www.w3.org/TR/2001/REC-SVG-20010904/DTD/svg10.dtd">
<svg version="1.0" xmlns="http://www.w3.org/2000/svg"
 width="1270.000000pt" height="1280.000000pt" viewBox="0 0 1270.000000 1280.000000"
 preserveAspectRatio="xMidYMid meet">
<metadata>
Created by potrace 1.15, written by Peter Selinger 2001-2017
</metadata>
<g transform="translate(0.000000,1280.000000) scale(0.100000,-0.100000)"
fill="#000000" stroke="none">
<path d="M5713 11820 c-40 -17 -68 -57 -429 -602 -840 -1269 -686 -1036 -2314
-3498 -460 -696 -842 -1275 -848 -1287 -19 -35 -14 -68 16 -95 16 -15 467
-225 1092 -508 586 -266 1077 -491 1092 -502 38 -27 45 -60 20 -102 -11 -19
-150 -191 -308 -382 -159 -192 -367 -443 -462 -559 -96 -115 -233 -282 -306
-370 -73 -88 -350 -423 -616 -745 -266 -322 -543 -657 -616 -745 -73 -88 -212
-257 -310 -375 -775 -938 -724 -873 -724 -909 0 -58 77 -131 139 -131 45 0
-264 -173 2656 1483 369 209 1226 695 1905 1080 679 385 1669 946 2200 1247
531 301 1352 766 1825 1035 473 268 870 496 883 508 29 27 26 64 -8 89 -14 10
-504 236 -1090 501 -586 266 -1084 494 -1108 506 -50 25 -70 60 -56 97 9 23
109 146 794 974 166 201 361 437 434 525 73 88 307 372 521 630 214 259 491
594 616 745 125 151 417 505 649 785 232 281 428 523 436 538 19 35 10 65 -23
78 -15 5 -1168 9 -3021 9 -2931 0 -2998 -1 -3039 -20z"/>
</g>
</svg>
