<?xml version="1.0" encoding="utf-8"?>
<!-- Generator: Adobe Illustrator 25.2.1, SVG Export Plug-In . SVG Version: 6.00 Build 0)  -->
<svg version="1.1" id="Camada_1" xmlns="http://www.w3.org/2000/svg" xmlns:xlink="http://www.w3.org/1999/xlink" x="0px" y="0px"
	 viewBox="0 0 1080 1080" style="enable-background:new 0 0 1080 1080;" xml:space="preserve">
<style type="text/css">
	.st0{fill:#C53CF7;}
	.st1{display:none;}
	.st2{display:inline;fill:#FFFFFF;}
</style>
<g>
	<path class="st0" d="M541.54,1060.98C254.69,1061,20.9,827.32,20.96,540.63C21.02,252.52,254.3,19.5,542.17,20
		c288.17,0.5,520.22,233.45,519.94,521.94C1061.83,827.61,827.79,1060.96,541.54,1060.98z M227.11,903.35
		c8.4-139.74,77.71-233.15,207.49-281.91c-126.45-76.21-132.22-235.97-51.82-324.63c81-89.32,218.12-95.63,304.99-12.5
		c42.93,41.09,65.58,91.74,65.58,151.32c0.01,81.19-37.73,141.9-105.67,185.66c131.12,49.26,200.1,142.9,208.22,281.65
		c123.34-99.85,205.41-294.5,149.29-493.09C948.16,208.01,766.35,64.91,559.96,59.05C343.71,52.92,154.81,182.55,85.52,385.37
		C17.61,584.15,91.09,790.32,227.11,903.35z M538.19,1021.94c90.96-0.83,172.36-23.47,248.63-66.7
		c21.75-12.33,30.42-25.98,29.53-52.08c-3.72-109.46-66.05-200.6-165.48-238.5c-43.67-16.65-88.92-16.34-134.37-15.51
		c-67.54,1.23-125.67,25.75-173.64,72.96C284.94,779.1,263.3,849.88,267.9,929.6c0.27,4.62,5.62,10.2,10.06,13.13
		C357.91,995.35,446.13,1020.81,538.19,1021.94z M542.41,265.02c-96.03-0.48-173.38,76.1-173.94,172.22
		c-0.55,94.43,77.15,172.43,172.17,172.83c95.2,0.4,173.55-76.65,173.97-171.07C715.04,342.91,638.43,265.51,542.41,265.02z"/>
</g>
<g class="st1">
	<path class="st2" d="M68,390.86c1.82-10.01,3.52-20.05,5.48-30.03c5.63-28.65,21.12-50.42,46.09-65.48
		c19.35-11.67,38.62-23.49,58.11-34.92c25.73-15.08,50.93-9.23,67.88,15.57c9,13.16,17.75,26.49,28.68,39.2c0-3.25,0-6.5,0-9.76
		c0-54.85-0.03-109.7,0.01-164.55c0.02-30.1,15.72-45.92,45.7-45.92c218.15-0.03,436.31-0.03,654.46,0
		c29.84,0,45.71,16.03,45.71,46.03c0.02,159.9,0.02,319.79,0,479.69c0,29.91-15.85,45.68-46.01,45.69
		c-200.49,0.03-400.98,0.02-601.47,0.02c-3.59,0-7.18,0-12.23,0c1.77,2.48,2.45,3.76,3.42,4.76
		c36.42,37.26,73.41,73.9,117.79,101.92c10.98,6.93,22.31,13.34,33.7,19.59c10.64,5.84,16.54,4.53,24.14-5.12
		c13.04-16.54,25.84-33.27,38.81-49.87c18.82-24.07,44.15-28.4,69.52-11.57c47.73,31.68,95.4,63.46,142.98,95.36
		c25.98,17.41,31.45,42.25,15.51,69.21c-9.77,16.52-20.4,32.57-29.43,49.48c-19.1,35.77-49.58,52.62-88.81,57.2
		c-51.89,6.05-101.1-4.01-148.82-23.31c-67.96-27.48-127.29-68.83-182.55-116.22c-83.39-71.51-158.95-150.24-218.41-243.22
		c-32.77-51.25-57.93-105.79-67.33-166.6c-0.93-6.04-1.95-12.07-2.93-18.1C68,416.89,68,403.88,68,390.86z M647.1,126.66
		c-109.09,0-218.18-0.01-327.27,0.01c-11.85,0-13.86,1.89-13.87,13.22c-0.04,73.45-0.08,146.9,0.14,220.35
		c0.01,4,1.6,8.48,3.78,11.89c10.17,15.91,20.89,31.48,31.27,47.27c16.83,25.6,12.8,50.49-11.32,69.54
		c-16.29,12.87-32.8,25.45-49.12,38.28c-10.49,8.24-12.49,14.71-5.58,25.53c16.12,25.28,33.08,50.01,49.6,75.03
		c3.59,5.44,8.21,7.1,14.78,7.1c211.05-0.18,422.1-0.15,633.15-0.15c14.39,0,15.81-1.46,15.81-16.08
		c0.01-158.67,0.01-317.35,0-476.02c0-14.46-1.5-15.95-15.96-15.95C864.03,126.66,755.57,126.66,647.1,126.66z M657.6,968.86
		c14.96-2.22,29.99-4.05,44.86-6.74c18.43-3.33,32.17-13.82,41.8-29.72c11.87-19.59,23.71-39.21,35.34-58.94
		c6.45-10.95,4.81-18.09-5.93-25.28c-47.87-32.03-95.8-63.97-143.78-95.83c-10.96-7.28-18.09-5.96-26.34,4.55
		c-13.01,16.56-25.82,33.29-38.86,49.83c-3.05,3.86-6.3,7.78-10.17,10.75c-17.81,13.63-36.2,12.88-55.59,2.69
		c-53.3-28.01-98.14-66.75-140.38-108.95c-42.89-42.85-82.7-88.01-110.96-142.3c-14.02-26.93-9.91-48.35,14.02-67.09
		c16.1-12.6,32.34-25.03,48.4-37.68c11.15-8.79,12.4-15.6,4.78-27.05c-31.71-47.71-63.49-95.37-95.33-142.99
		c-7.43-11.11-14.55-12.77-25.97-6.03c-19.47,11.48-38.81,23.16-58.18,34.8c-15.32,9.21-25.51,22.39-29.8,39.8
		c-6.76,27.45-7.36,55.16-2.9,83.01c9.19,57.38,33.96,108.4,65.19,156.51c53.56,82.51,120.9,152.92,193.97,218.1
		c48.46,43.22,100.2,81.95,158.7,110.84C563.62,952.45,608.59,967.27,657.6,968.86z"/>
	<path class="st2" d="M645.57,407.8c-10.79-4.88-22.91-7.99-32.15-14.92c-86.97-65.25-173.47-131.13-260.05-196.89
		c-9.91-7.53-11.96-17.02-5.82-24.72c6-7.53,15.47-7.7,25.55-0.07c85.17,64.55,170.31,129.15,255.45,193.74
		c15.12,11.47,22.1,11.47,37.21,0.01c84.66-64.2,169.31-128.41,253.99-192.59c2.7-2.05,5.49-4.19,8.57-5.47
		c7.45-3.08,14.26-1.52,18.89,5.16c4.29,6.19,4.21,12.94-0.84,18.87c-2.37,2.79-5.39,5.1-8.34,7.33
		c-84.63,64.24-169.33,128.39-253.9,192.7c-11.19,8.51-23.19,14.17-37.46,14.29C646.31,406.1,645.94,406.95,645.57,407.8z"/>
	<path class="st2" d="M771.76,388.59c6.22,4.65,11.66,7.61,15.69,11.89c42.2,44.85,84.17,89.92,126.2,134.93
		c9.93,10.63,19.92,21.2,29.74,31.93c8.39,9.17,8.93,18.76,1.69,25.33c-7.17,6.5-16.22,5.51-24.48-3.32
		c-52.64-56.27-105.19-112.63-157.75-168.97c-5.38-5.77-9.37-12.55-4.64-19.99C761.04,395.93,766.43,393.08,771.76,388.59z"/>
	<path class="st2" d="M363.77,596.86c-14.25,0.14-22.13-12.16-17.08-22.36c1.48-2.98,3.76-5.67,6.05-8.13
		c51.08-54.8,102.22-109.55,153.35-164.31c1.06-1.13,2.09-2.28,3.19-3.38c7.8-7.78,17.14-8.83,23.88-2.7
		c7.25,6.59,7.05,15.91-1.02,24.59c-32.88,35.37-65.86,70.65-98.81,105.95c-19.22,20.59-38.33,41.29-57.8,61.66
		C371.68,592.23,366.43,594.94,363.77,596.86z"/>
</g>
<g class="st1">
	<path class="st2" d="M769.09,71c13.97,2.44,28.17,3.96,41.87,7.45c97.57,24.87,164.22,85.01,195.61,180.32
		c27.5,83.49,15.33,163.52-35.18,236.12c-12.78,18.36-29.56,34-45.07,50.35c-4.33,4.57-6.83,8.54-6.76,15.07
		c0.35,31.29,0.06,62.58,0.22,93.87c0.05,9.31-1.74,17.46-11.09,21.58c-9.72,4.28-17.26,0.05-24.08-6.8
		c-20.33-20.42-40.83-40.66-61.07-61.17c-3.64-3.69-6.79-4.49-12.1-3.52c-60.65,11.1-121.46,12.69-181.38-3.27
		c-65.53-17.45-116.63-56.19-153.67-112.77c-34.25-52.32-48.47-110.16-42.32-172.42c7.53-76.24,41.85-138.48,101.48-186.34
		c41.88-33.61,90.06-52.39,143.62-57.18c1.48-0.13,2.91-0.85,4.37-1.29C712.06,71,740.57,71,769.09,71z M882.53,614.4
		c0-18.77,1.34-34.98-0.33-50.88c-2.24-21.34,5.85-35.19,22.2-48.97c44.69-37.66,69.67-87.15,76.56-145.03
		c7.6-63.83-8.53-121.78-48.4-172.3c-36.97-46.84-85.27-75.69-144.36-85.38c-37.22-6.1-74.75-4.75-112.13-1.75
		c-23.91,1.92-46.94,8.43-68.58,18.79c-75.47,36.1-122.31,95.04-134.5,178.04c-12.87,87.59,17.13,160.38,85.25,216.57
		c38.61,31.84,83.84,48.38,134.07,50.21c40.55,1.48,81.21,3.42,120.82-8.24c11.5-3.39,20.26-0.96,28.41,7.66
		C854.26,586.55,867.59,599.43,882.53,614.4z"/>
	<path class="st2" d="M68,509.88c6.54-17.84,10.59-37.16,20.13-53.22c23.08-38.88,59-60.36,104.14-61.5
		c63.8-1.61,127.67-0.59,191.52-0.5c12.51,0.02,21.08,8.39,20.66,19.12c-0.42,10.75-8.87,17.93-21.86,17.95
		c-59.5,0.09-119.01,0.02-178.51,0.05c-59.1,0.02-98.87,39.93-98.88,99.23c-0.02,91.43-0.02,182.85,0,274.28
		c0.01,59.08,39.94,98.81,99.28,98.83c36.26,0.01,72.52,0.16,108.78-0.11c9.73-0.07,16.42,3.29,23.11,10.78
		c13.36,14.95,28.33,28.45,44.07,43.97c0-11.1-0.04-20.8,0.01-30.49c0.08-17.61,6.57-24.12,24.25-24.13
		c63.22-0.04,126.45,0.01,189.67-0.02c58.52-0.03,98.43-40.05,98.46-98.72c0.02-38.43,0-76.86,0.01-115.29
		c0-2.79-0.12-5.6,0.22-8.36c1.26-10.22,9.1-17.48,18.55-17.38c9.49,0.11,17.06,7.41,18.24,17.72c0.25,2.15,0.17,4.33,0.17,6.5
		c0.01,39.67,0.09,79.34-0.01,119.01c-0.21,77.04-56.86,133.55-134.08,133.69c-55.79,0.1-111.57,0.02-167.36,0.02
		c-3.34,0-6.68,0-10.99,0c0,21.21,0.03,41.57-0.01,61.93c-0.02,8.13-3.39,14.45-10.91,17.95c-7.62,3.54-14.51,1.58-20.67-3.63
		c-2.12-1.8-4.07-3.81-6.04-5.78c-21.49-21.46-42.79-43.12-64.64-64.21c-3.51-3.38-9.43-5.91-14.29-5.99
		c-32.84-0.52-65.7-0.22-98.55-0.28c-69.42-0.12-120.96-43.58-132.99-112.02c-0.2-1.14-0.99-2.18-1.5-3.27
		C68,720.64,68,615.26,68,509.88z"/>
	<path class="st2" d="M382.27,684.68c-62.6,0-125.2,0-187.81-0.01c-3.09,0-6.23,0.13-9.28-0.32c-9.7-1.43-16.63-9.18-16.62-18.27
		c0-9.09,6.93-16.83,16.64-18.26c3.04-0.45,6.18-0.32,9.28-0.32c125.82-0.01,251.65-0.01,377.47-0.01c0.62,0,1.24,0,1.86,0
		c15.08,0.09,24.04,7.03,24.04,18.6c-0.01,11.58-8.97,18.57-24.05,18.58C509.96,684.7,446.12,684.68,382.27,684.68z"/>
	<path class="st2" d="M345.97,788.82c-50.49,0-100.99,0-151.48-0.01c-3.09,0-6.23,0.13-9.27-0.32c-9.71-1.42-16.63-9.14-16.65-18.23
		c-0.02-9.08,6.9-16.81,16.58-18.3c2.43-0.38,4.94-0.32,7.41-0.32c102.84-0.01,205.69,0.02,308.53-0.06
		c9.68-0.01,18.11,2.08,22.13,11.82c5.16,12.49-3.74,24.88-18.35,25.32c-14.24,0.43-28.5,0.11-42.75,0.11
		C423.42,788.83,384.7,788.82,345.97,788.82z"/>
	<path class="st2" d="M323.71,543.35c42.46,0,84.91-0.01,127.37,0.01c3.09,0,6.23-0.13,9.28,0.32c9.69,1.43,16.62,9.19,16.62,18.27
		c-0.01,9.09-6.94,16.83-16.64,18.25c-3.04,0.45-6.18,0.32-9.28,0.32c-85.53,0.01-171.06,0.01-256.59,0.01c-0.62,0-1.24,0-1.86,0
		c-15.07-0.09-24.04-7.03-24.03-18.61c0.01-11.58,8.97-18.56,24.06-18.57C236.32,543.33,280.02,543.35,323.71,543.35z"/>
	<path class="st2" d="M579.08,788.67c-9.7-0.21-18.33-9.14-18.12-18.76c0.21-9.7,9.14-18.33,18.76-18.12
		c9.7,0.21,18.33,9.14,18.12,18.76C597.64,780.25,588.7,788.88,579.08,788.67z"/>
	<path class="st2" d="M713.16,375.5c0-7.12-0.2-14.26,0.04-21.37c0.51-15.41,9.08-27,23.59-32.27c2.91-1.05,5.89-1.89,8.79-2.95
		c19.31-7.03,30.58-26.72,26.72-46.62c-3.85-19.85-21.94-34.36-41.99-33.68c-20.5,0.69-36.85,15.59-39.65,36.1
		c-0.38,2.76-0.81,5.52-1.37,8.24c-2.16,10.38-9.74,16.1-19.96,15.13c-9.28-0.88-15.9-8.34-16.25-18.3
		c-1.1-31.84,23.36-65.52,54.15-74.57c53.95-15.86,104.14,22.76,102.69,79.02c-0.77,29.99-21.88,59.37-50.79,69.02
		c-7.45,2.49-9.41,5.92-9,13.14c0.58,10.19,0.38,20.44,0.08,30.66c-0.38,12.81-8.06,21.24-18.76,21.19
		c-10.77-0.05-18.09-8.49-18.34-21.36c-0.13-7.12-0.02-14.25-0.02-21.38C713.11,375.5,713.14,375.5,713.16,375.5z"/>
	<path class="st2" d="M750.04,473.13c0.13,9.76-8.39,18.31-18.33,18.4c-10.19,0.09-18.41-7.94-18.49-18.06
		c-0.09-10.05,8.14-18.45,18.15-18.55C741.15,454.83,749.91,463.37,750.04,473.13z"/>
</g>
<g class="st1">
	<path class="st2" d="M571.96,71c18.05,2.43,36.22,4.22,54.13,7.41c109.78,19.55,201.62,71.48,275.36,154.88
		c67.04,75.83,106.15,164.64,116.04,265.22c12.18,123.86-19.04,236.68-94.48,335.9c-71.11,93.52-164.63,154.05-279.89,177.88
		c-141.57,29.27-271.55,0.27-386.95-86.83C162.4,854.67,103.41,760.42,78.53,645.41c-4.3-19.89-5.92-40.37-8.81-60.57
		c-0.47-3.31-1.14-6.58-1.71-9.87c0-18.6,0-37.19,0-55.79c0.76-6.69,1.53-13.38,2.28-20.07c11.41-102.44,50.51-192.81,119.57-269.44
		C263.16,148.31,354,97.54,462.07,78.4c17.91-3.17,36.07-4.97,54.11-7.4C534.77,71,553.37,71,571.96,71z M543.29,985.05
		c240.29,0.18,437.84-193.96,438.68-436.74c0.83-240.19-193.52-438.55-437.12-439.14c-240.29-0.58-437.84,193.87-438.68,436.65
		C105.34,786.01,299.69,984.07,543.29,985.05z"/>
	<path class="st2" d="M582.08,597.98c0,40.58,0.17,81.16-0.15,121.74c-0.06,7.14,2.02,12.26,7.2,17.02
		c7.98,7.32,15.4,15.25,23.09,22.9c6.62,6.59,10.36,14.02,6.19,23.37c-3.9,8.76-11.17,11.61-20.35,11.58
		c-35.93-0.13-71.86-0.13-107.79,0c-9.54,0.03-17.01-2.94-20.84-12.25c-3.74-9.1-0.01-16.21,6.3-22.54
		c8.53-8.56,17.35-16.84,25.45-25.79c2.6-2.87,4.66-7.46,4.67-11.27c0.28-66.29,0.29-132.58-0.02-198.87
		c-0.02-4.05-2.4-8.87-5.2-11.97c-8.07-8.97-16.96-17.19-25.44-25.8c-6.34-6.43-9.55-13.81-5.48-22.7
		c3.79-8.27,10.62-11.46,19.51-11.42c23.54,0.12,47.08-0.08,70.61,0.08c15.36,0.1,22.13,7.1,22.19,23.25
		C582.18,516.2,582.08,557.09,582.08,597.98z"/>
	<path class="st2" d="M543.67,413.47c-31.15-0.21-56.65-25.72-56.76-56.77c-0.1-31.23,26.13-57.23,57.55-57.02
		c31.02,0.21,56.7,25.94,56.76,56.89C601.3,387.89,575.21,413.68,543.67,413.47z"/>
</g>
</svg>
