<?xml version="1.0" encoding="utf-8"?>
<!-- Generator: Adobe Illustrator 25.2.1, SVG Export Plug-In . SVG Version: 6.00 Build 0)  -->
<svg version="1.1" id="Camada_1" xmlns="http://www.w3.org/2000/svg" xmlns:xlink="http://www.w3.org/1999/xlink" x="0px" y="0px"
	 viewBox="0 0 1080 1080" style="enable-background:new 0 0 1080 1080;" xml:space="preserve">
<style type="text/css">
	.st0{fill:#344350;}
	.st1{fill:#B14ECE;}
</style>
<g>
	<path class="st0" d="M258.72,534.94c7.57,8.87,14.39,18.52,22.82,26.48c43.83,41.35,118.89,21.48,135.9-36.13
		c3.3-11.16,7.88-19.48,17.92-26.11c18.26-12.05,28.33-30.29,32.19-51.55c1.02-5.6,3.64-8.3,7.92-10.9
		c22.22-13.52,35.48-33.26,39.55-58.84c1.03-6.48,3.63-10.6,9.06-14.46c36.36-25.8,46.9-73.18,24.55-111.99
		c-5.07-8.81-3.83-13.07,4.4-18.31c17.25-10.98,33.8-23.04,50.78-34.44c23.04-15.48,50.92-11.78,64.08,8.21
		c7.18,10.91,6.91,22.43,3.98,34.56c-1.08,4.47-5.85,9.59-2.21,13.46c4.27,4.53,9.73-0.05,14.44-1.68
		c25.12-8.71,50.31,5.69,54.2,31.79c2.4,16.07-4.6,28.72-16.87,38.95c-2.47,2.06-7.91,3.61-5.79,7.92c1.75,3.56,6.5,1.59,9.84,1.18
		c24.1-2.91,36.48,2.11,45.07,18.58c8.54,16.37,5.09,34.54-9.64,50.78c-1.35,1.49-2.73,2.95-4.08,4.45
		c-1.54,1.72-4.24,3.09-3.06,5.94c1.66,3.99,4.76,1.25,7.27,1.13c16.77-0.78,32.51,1.32,41.49,17.93
		c8.63,15.96,6.47,38.22-6.78,51.8c-65.95,67.56-131.78,135.4-211.88,186.92c-42.78,27.51-88.5,49.27-137.49,63.35
		c-18.7,5.38-34.71,14.33-49.14,26.99c-11.56,10.14-11.75,9.87-20.23-2.04c-41.47-58.19-82.81-116.48-124.62-174.43
		c-5.88-8.15-8.47-15.29-4.29-24.92c2.97-6.85,4.3-14.41,6.36-21.65C255.88,536.92,257.3,535.93,258.72,534.94z"/>
	<path class="st0" d="M8.25,788.04c-0.43-14.49,6.68-25.49,16.38-34.98c53.99-52.81,108.28-105.31,161.99-158.4
		c7.41-7.32,10.42-5.76,15.61,1.57c52.72,74.29,105.61,148.44,158.7,222.47c3.96,5.52,4.6,8.56-0.73,13.84
		c-23.95,23.75-47.16,48.24-70.94,72.17c-20.94,21.07-35.79,23.81-62.84,11.71c-62.33-27.9-124.53-56.1-186.87-83.98
		C20.1,823.73,9.28,809.41,8.25,788.04z"/>
	<path class="st1" d="M824.9,924.55c-12.73-0.99-24.4-4.6-33.6-14.07c-23.5-24.21-46.86-48.55-70.56-72.55
		c-4.26-4.31-4.47-7.27-0.99-12.09c40.34-55.88,80.52-111.87,120.69-167.87c14.02-19.54,28.3-38.92,41.65-58.9
		c4.64-6.95,6.78-6.18,12.11-0.92c27.44,27.07,55.36,53.65,83.01,80.51c25.36,24.64,50.75,49.24,75.79,74.21
		c26.65,26.58,20.85,63.44-13.16,79.08c-65.55,30.15-131.5,59.42-197.33,88.95C837.01,923.36,831.18,925.12,824.9,924.55z"/>
	<path class="st1" d="M369,230.73c0.53-5.58,0.19-9.41,1.36-12.71c2.34-6.63,3.43-15.88,11.94-16.44c8.15-0.54,6.24,8.99,8.18,13.83
		c19.52,48.9,61.81,78.64,115.12,79.29c11.01,0.13,11.97,3.87,8.67,13.01c-7.08,19.6-22.33,27.76-41.44,29.59
		c-7.52,0.72-7.82,2.73-5.53,8.59c3.49,8.95,6.86,17.96,4.43,27.97c-4.79,19.74-18.71,31.44-41.08,31.79
		c-10.03,0.15-11.04,2.59-8.54,11.5c10.37,36.87-17.8,60.53-43.63,57.98c-10.57-1.04-3.99,4.48-3.08,7.63
		c7.79,26.86,0.06,49.82-28.7,57.13c-10.57,2.69-21.51,1.68-29.84-5.08c-26.55-21.52-51.35-45.12-72.09-72.3
		c-15.94-20.89-8.8-47.63,14.22-59.95c3.86-2.07,8.09-4.6,12.58-2.93c5.63,2.09,12.05,0.49,14.14-2.87
		c2.28-3.67-3.39-7.75-6.41-11.39c-10.11-12.15-18.95-24.75-13.84-42.17c5.8-19.74,18.46-30.2,39.1-30.54
		c9.09-0.15,13.24-1.43,6.9-11.28c-10.68-16.58-10.5-34.56,1.91-49.2c11.82-13.93,28.72-18.4,47.08-12.11
		C374.55,244.91,368,233.85,369,230.73z"/>
	<path class="st1" d="M584.84,720.52c10.27-6.64,20.92-13.44,31.48-20.38c54.92-36.13,102.84-80.53,149.59-126.3
		c17.48-17.12,34.62-34.58,51.98-51.81c2.14-2.13,4.08-5.78,7.87-3.93c3.04,1.48,2.02,5.04,1.99,7.67
		c-0.2,13.8,2.4,27.23,7.43,39.84c4.02,10.09,2.36,17.55-3.87,26.16c-43.18,59.69-85.91,119.7-128.7,179.68
		c-2.44,3.42-4.31,7.87-8.89,3.07c-28.35-29.72-68.66-34.41-103.86-49.78C588.18,723.99,585.68,724.33,584.84,720.52z"/>
	<path class="st1" d="M571.36,170.34c-25.48,18.02-50.49,35.73-75.53,53.4c-6.86,4.84-14.79,8.61-20.49,14.54
		c-8.97,9.34-16.1,6.6-23.83-0.78c-12.12-11.57-20.9-25.3-25.74-41.28c-2.06-6.79-1.75-11.77,8.62-11.99
		c13.92-0.28,27.76-4.56,41.67-4.81c19.73-0.35,38.56-7.19,58.6-6.04c7.55,0.43,15.94-4.01,24.3-4.65
		C562.78,168.44,566.72,166.54,571.36,170.34z"/>
</g>
</svg>
