<?xml version="1.0" encoding="iso-8859-1"?>
<!-- Generator: Adobe Illustrator 19.0.0, SVG Export Plug-In . SVG Version: 6.00 Build 0)  -->
<svg version="1.1" id="Capa_1" xmlns="http://www.w3.org/2000/svg" xmlns:xlink="http://www.w3.org/1999/xlink" x="0px" y="0px"
	 viewBox="0 0 490 490" style="enable-background:new 0 0 490 490;" xml:space="preserve">
<g>
	<g>
		<g>
			<path d="M364.8,101.5l43.2,21.8c15.7-6.6,17.4-8.9,23.7-23.7c10.4-19.5,17-73.2-7.4-97.6c-1.9-3.1-7-1.6-7,2.3
				c0.8,11.3-11.3,54.1-40.1,61.1c-4.7,2.3-9.3,4.7-13.6,8.6C350.8,85.6,360.9,100.3,364.8,101.5z"/>
			<path d="M245,213.5C187.4,126.4,307.2,0,245,0C109.7,0,0,109.7,0,245s109.7,245,245,245s245-109.7,245-245
				C490,171.9,341.8,360.9,245,213.5z M37.7,222.8c0-21.8,17.9-39.7,39.7-39.7s39.7,17.9,39.7,39.7s-17.9,39.7-39.7,39.7
				S37.7,245,37.7,222.8z M112,386.6c-21.8,0-39.7-17.9-39.7-39.7s17.9-39.7,39.7-39.7c22.2,0,39.7,17.5,39.7,39.7
				S134.2,386.6,112,386.6z M142.7,151.3c-21.8,0-39.7-17.9-39.7-39.7s17.9-39.7,39.7-39.7s39.7,17.9,39.7,39.7
				C182.4,133.8,164.9,151.3,142.7,151.3z M226.7,454.6c-21.8,0-39.7-17.9-39.7-39.7s17.9-39.7,39.7-39.7s39.7,17.9,39.7,39.7
				S248.5,454.6,226.7,454.6z M353.9,414.6c-21.8,0-39.7-17.9-39.7-39.7s17.9-39.7,39.7-39.7s39.7,17.9,39.7,39.7
				S375.7,414.6,353.9,414.6z"/>
			<path d="M342.6,251.6l57.2-110.4l-43.2-21.4c-0.4,0-0.4-0.4-0.8-0.4l-50.6,124.4C319.2,251.6,337.2,251.8,342.6,251.6z"/>
		</g>
	</g>
</g>
<g>
</g>
<g>
</g>
<g>
</g>
<g>
</g>
<g>
</g>
<g>
</g>
<g>
</g>
<g>
</g>
<g>
</g>
<g>
</g>
<g>
</g>
<g>
</g>
<g>
</g>
<g>
</g>
<g>
</g>
</svg>
