<?xml version="1.0" encoding="iso-8859-1"?>
<!-- Generator: Adobe Illustrator 17.1.0, SVG Export Plug-In . SVG Version: 6.00 Build 0)  -->
<!DOCTYPE svg PUBLIC "-//W3C//DTD SVG 1.1//EN" "http://www.w3.org/Graphics/SVG/1.1/DTD/svg11.dtd">
<svg version="1.1" id="Capa_1" xmlns="http://www.w3.org/2000/svg" xmlns:xlink="http://www.w3.org/1999/xlink" x="0px" y="0px"
	 viewBox="0 0 386.214 386.214" style="enable-background:new 0 0 386.214 386.214;" xml:space="preserve">
<path d="M364.427,259.214c-14.051-14.052-32.733-21.79-52.605-21.79c-10.619,0-20.888,2.23-30.302,6.431
	c-1.076-1.701-2.341-3.298-3.799-4.756l-54.188-54.188l95.825-95.825c2.645,2.529,5.363,3.085,7.197,3.085
	c4.06,0,6.8-2.535,7.308-3.042l22.197-22.197c3.771-3.771,5.563-7.434,5.477-11.197c-0.135-5.897-4.599-9.968-9.767-14.683
	c-1.53-1.395-3.111-2.838-4.7-4.426c-1.588-1.588-3.03-3.169-4.426-4.699c-4.782-5.243-8.912-9.771-14.939-9.771
	c-3.676,0-7.255,1.793-10.941,5.48l-22.281,22.281c-2.746,2.746-5.103,9.066,0.122,14.426l-95.821,95.821l-56.131-56.131
	c4.012-9.232,6.137-19.269,6.137-29.638c0-19.872-7.739-38.555-21.791-52.607C112.95,7.737,94.27,0,74.4,0
	c-6.632,0-13.232,0.881-19.615,2.62c-2.513,0.684-4.569,2.752-5.238,5.268c-0.683,2.565,0.096,5.206,2.121,7.232
	c0.266,0.267,26.668,26.873,35.46,35.665c1.31,1.31,1.193,4.015,1.058,4.81l-0.069,0.489c-1.005,10.964-3.034,24.215-4.565,27.493
	c-3.303,1.581-16.767,3.637-27.911,4.633l-0.149-0.013l-0.302,0.072c-0.082,0.009-0.26,0.024-0.508,0.024
	c-1.253,0-3.096-0.349-4.758-2.011c-9.151-9.152-34.537-34.35-34.779-34.59c-2.06-2.06-4.147-2.492-5.536-2.492
	c-3.225,0-6.112,2.349-7.022,5.713C-4.357,80.592,3,108.214,21.786,127c14.051,14.051,32.733,21.79,52.606,21.79
	c10.369,0,20.407-2.126,29.639-6.137l56.131,56.131l-22.013,22.013c-3.536-1.853-7.497-2.839-11.618-2.839
	c-6.693,0-12.972,2.592-17.678,7.298l-12.282,12.283c-1.175-0.166-2.369-0.254-3.578-0.254c-6.692,0-12.971,2.592-17.677,7.298
	l-64.351,64.35c-4.707,4.706-7.299,10.984-7.299,17.678c0,6.693,2.592,12.971,7.299,17.678l28.44,28.44
	c4.706,4.706,10.984,7.298,17.678,7.298c6.692,0,12.971-2.592,17.677-7.298l64.35-64.35c4.707-4.706,7.299-10.984,7.299-17.678
	c0-1.209-0.087-2.404-0.254-3.579l12.282-12.282c4.707-4.707,7.299-10.984,7.299-17.678c0-4.121-0.986-8.082-2.839-11.618
	l22.013-22.013l54.188,54.188c1.458,1.457,3.055,2.723,4.755,3.798c-4.201,9.414-6.431,19.684-6.431,30.302
	c0,19.873,7.739,38.555,21.791,52.607c14.048,14.048,32.729,21.785,52.6,21.786c0.001,0,0.001,0,0.003,0
	c6.63,0,13.23-0.882,19.614-2.62c2.513-0.684,4.568-2.752,5.236-5.268c0.682-2.565-0.097-5.206-2.122-7.23
	c-0.266-0.267-26.667-26.874-35.459-35.666c-1.31-1.31-1.193-4.015-1.058-4.811l0.069-0.489c1.005-10.964,3.034-24.214,4.565-27.493
	c3.303-1.581,16.767-3.637,27.911-4.633l0.149,0.013l0.301-0.072c0.083-0.009,0.261-0.024,0.508-0.024
	c1.253,0,3.097,0.349,4.76,2.012c9.15,9.151,34.536,34.349,34.778,34.589c2.06,2.06,4.147,2.493,5.536,2.493
	c3.225,0,6.112-2.349,7.023-5.713C390.572,305.623,383.214,278.001,364.427,259.214z M86.206,329.713l-7.226,7.226
	c-7.778,7.778-20.506,7.778-28.284,0l-3.94-3.941c-7.778-7.778-7.778-20.506,0-28.284l7.226-7.226
	c7.778-7.778,20.506-7.778,28.284,0l3.941,3.941C93.984,309.207,93.984,321.935,86.206,329.713z M245.671,245.671
	c-1.465,1.464-3.385,2.197-5.304,2.197c-1.92,0-3.839-0.732-5.304-2.197l-88.414-88.414c-2.929-2.929-2.929-7.678,0-10.607
	c2.931-2.93,7.679-2.929,10.607,0l27.519,27.519l0,0l24.749,24.749l0,0l36.146,36.147C248.6,237.994,248.6,242.743,245.671,245.671z
	"/>
<g>
</g>
<g>
</g>
<g>
</g>
<g>
</g>
<g>
</g>
<g>
</g>
<g>
</g>
<g>
</g>
<g>
</g>
<g>
</g>
<g>
</g>
<g>
</g>
<g>
</g>
<g>
</g>
<g>
</g>
</svg>
