<?xml version="1.0"?>
<svg xmlns="http://www.w3.org/2000/svg" viewBox="0 0 50 50">
    <path style="line-height:normal;text-indent:0;text-align:start;text-decoration-line:none;text-decoration-style:solid;text-decoration-color:#000;text-transform:none;block-progression:tb;isolation:auto;mix-blend-mode:normal" d="M 20 2 C 18.354937 2 17 3.3549372 17 5 L 17 7 L 4.9179688 7 C 3.3099688 7 2 8.2956719 2 9.8886719 L 2 25 C 2 25.551 2.4119688 26 2.9179688 26 L 33.380859 26 C 35.279859 24.739 37.555 24 40 24 C 43.075 24 45.874 25.171078 48 27.080078 L 48 9.8886719 C 48 8.2956719 46.690031 7 45.082031 7 L 33 7 L 33 5 C 33 3.3549372 31.645063 2 30 2 L 20 2 z M 20 4 L 30 4 C 30.562937 4 31 4.4370628 31 5 L 31 7 L 19 7 L 19 5 C 19 4.4370628 19.437063 4 20 4 z M 25 20 C 26.105 20 27 20.895 27 22 C 27 23.105 26.105 24 25 24 C 23.895 24 23 23.105 23 22 C 23 20.895 23.895 20 25 20 z M 40 26 C 34.488997 26 30 30.488997 30 36 C 30 38.396508 30.851014 40.597385 32.263672 42.322266 L 26.292969 48.292969 L 27.707031 49.707031 L 33.677734 43.736328 C 35.402615 45.148986 37.603492 46 40 46 C 45.511003 46 50 41.511003 50 36 C 50 30.488997 45.511003 26 40 26 z M 2 27.832031 L 2 40.109375 C 2 41.703375 3.3099688 43 4.9179688 43 L 28.757812 43 L 29.667969 42.091797 C 28.584969 40.254797 28 38.145 28 36 C 28 32.925 29.171078 30.126 31.080078 28 L 2.9179688 28 C 2.5959688 28 2.29 27.932031 2 27.832031 z M 40 28 C 44.430123 28 48 31.569877 48 36 C 48 40.430123 44.430123 44 40 44 C 35.569877 44 32 40.430123 32 36 C 32 31.569877 35.569877 28 40 28 z" font-weight="400" font-family="sans-serif" white-space="normal" overflow="visible"/>
</svg>
