<?xml version="1.0" encoding="iso-8859-1"?>
<!-- Generator: Adobe Illustrator 18.0.0, SVG Export Plug-In . SVG Version: 6.00 Build 0)  -->
<!DOCTYPE svg PUBLIC "-//W3C//DTD SVG 1.1//EN" "http://www.w3.org/Graphics/SVG/1.1/DTD/svg11.dtd">
<svg version="1.1" id="Capa_1" xmlns="http://www.w3.org/2000/svg" xmlns:xlink="http://www.w3.org/1999/xlink" x="0px" y="0px"
	 viewBox="0 0 297 297" style="enable-background:new 0 0 297 297;" xml:space="preserve">
<g>
	<path d="M287.631,158.572H9.369c-5.174,0-9.369,4.195-9.369,9.369v87.132c0,5.174,4.195,9.369,9.369,9.369h278.262
		c5.174,0,9.369-4.195,9.369-9.369v-87.132C297,162.767,292.805,158.572,287.631,158.572z"/>
	<path d="M132.127,145.455h32.745c-2.734-6.344-9.038-10.803-16.373-10.803S134.861,139.111,132.127,145.455z"/>
	<path d="M38.633,127.158c5.301,0.407,12.109,1.533,18.745,4.351c-4.888,4.347-9.843,8.863-14.407,13.946h69.645
		c3.286-16.812,18.123-29.541,35.883-29.541s32.597,12.729,35.883,29.541h74.823c2.632-4.114,4.94-8.227,6.91-12.384
		c1.609-3.394,1.035-7.42-1.458-10.23c-2.493-2.809-6.421-3.857-9.984-2.666l-2.405,0.812c-6.05,2.046-11.895,4.024-17.501,4.819
		c4.34-14.795,7.586-32.323,4.986-50.537c-0.579-4.057-3.727-7.267-7.772-7.924c-4.048-0.651-8.049,1.392-9.881,5.057
		c-2.696,5.39-7.299,9.659-12.318,13.103c-3.68-15.164-9.587-32.077-20.579-46.457c-2.359-3.086-6.376-4.398-10.105-3.293
		c-3.725,1.103-6.383,4.392-6.68,8.266c-0.416,5.418-1.584,12.412-4.542,19.187c-11.161-11.114-24.351-22.241-40.193-29.748
		c-3.394-1.608-7.421-1.034-10.23,1.458c-2.81,2.493-3.859,6.423-2.666,9.984l0.811,2.405c2.047,6.05,4.025,11.895,4.82,17.501
		c-14.794-4.341-32.324-7.584-50.537-4.986c-4.057,0.579-7.267,3.728-7.924,7.772c-0.657,4.046,1.392,8.049,5.057,9.881
		c5.39,2.696,9.659,7.299,13.103,12.318c-15.164,3.68-32.077,9.587-46.457,20.579c-3.087,2.36-4.396,6.379-3.293,10.105
		C31.471,124.203,34.759,126.861,38.633,127.158z"/>
</g>
<g>
</g>
<g>
</g>
<g>
</g>
<g>
</g>
<g>
</g>
<g>
</g>
<g>
</g>
<g>
</g>
<g>
</g>
<g>
</g>
<g>
</g>
<g>
</g>
<g>
</g>
<g>
</g>
<g>
</g>
</svg>
